<?xml version="1.0" encoding="utf-8"?>
<!-- Generator: Adobe Illustrator 24.0.2, SVG Export Plug-In . SVG Version: 6.00 Build 0)  -->
<svg version="1.1" id="Layer_1" xmlns="http://www.w3.org/2000/svg" xmlns:xlink="http://www.w3.org/1999/xlink" x="0px" y="0px"
	 viewBox="0 0 295.1 142.6" style="enable-background:new 0 0 295.1 142.6;" xml:space="preserve">
<style type="text/css">
	.st0{fill:url(#SVGID_1_);}
	.st1{fill:#FFCB00;}
	.st2{fill:#00428A;}
	.st3{fill:#FFFFFF;}
	.st4{fill:#324F9D;}
</style>
<g>
	<g>
		
			<linearGradient id="SVGID_1_" gradientUnits="userSpaceOnUse" x1="-491.0773" y1="-403.2219" x2="-491.0773" y2="-312.0241" gradientTransform="matrix(1.1979 0 0 1.1979 734.1058 487.0439)">
			<stop  offset="0" style="stop-color:#0097C3"/>
			<stop  offset="1" style="stop-color:#C8E3F0"/>
		</linearGradient>
		<path class="st0" d="M10.7,61.1c0,0,2.5,4.2,2.5,4.2l4.4-2.2l0.6-0.3l20.1,44.8l1.9,4.3l4.5-1.5l10.9-3.6l4.8-1.6l-1.3-4.8
			l-5.8-22.2c1.7-1.2,3.2-2.6,4.7-4c-0.3,2.7-0.2,5.4,0.6,7.9c1.5,5.4,5,9.6,9.9,11.9c5.3,2.5,11.7,2.4,17.7-0.2
			c3-1.3,5.7-3.2,7.9-5.4l0.8,8.9l19.1-3l0-17.2L154,96.6V77.4c1.6-0.1,3.2-0.4,4.9-0.8c4.4-1.1,8.1-2.6,11.5-4.6l-1.7,10.3
			l21.5,3.2l1.2-7.8L197,88l3.4-6.7l1.3,10.9l24.4,4.1l-1.3-8.2c3.3,0.3,6.9-0.1,10.3-1.5c0.8-0.3,1.6-0.7,2.4-1.1l-1,8.8l16.2,2.1
			l0.1,6.7l16.9,5.2l22-66.8l-22.9-5.3l-2.2,9l-2-10l-27-5.7l0.2,15l4.1,0.9l-0.3,2.7c0,0-0.1,0-0.1-0.1c-5-2.6-11.3-2.8-17.2-0.5
			c-2,0.8-3.8,1.8-5.5,3l-4-25.7L196.8,25l-0.5,3l-18.9,0.2l-2.2,13.3l-1.6-1.9c-4.6-5.6-11.2-8.6-18.5-8.7l16-8.8L160.1,5.4
			l-20.2,23.5l3.5,4.2c-3.2,1.3-5.9,3.1-8.2,5.3l-17.3-15.2l-6.1,11.7l0.2-11.2L85,32.7l0.7,14.6l4.6-1.3l0.7,7.4
			c-5.3-2.3-11.6-2.2-17.4,0.4c-1.7,0.8-3.4,1.7-4.9,2.8c1-4.5,0.8-8.9-0.9-12.9c-2-4.6-5.6-8.5-9.9-10.9c-3.1-2-6.7-3.2-10.5-3.6
			c-9.4-1.5-20.6,0.3-31.7,5.1c-4.1,1.8-7.9,3.8-11.3,6L0,43.1l2.6,4.4 M122.9,58l5.1-5c-0.2,2.3-0.1,4.7,0.4,7.1L122.9,58z
			 M173.2,54.1l-3.5-3.1l3.8-4.1l1.1-1.2L173.2,54.1z"/>
		<path class="st1" d="M272.1,31.8l-2.2,9l-2-10l-27-5.9l0.2,15l4.1,0.9l-0.3,2.7c0,0-0.1,0-0.1-0.1c-5-2.7-11.3-2.9-17.2-0.7
			c-2,0.8-3.8,1.8-5.5,3L218,20h-18l-0.5,2.9h-18.9l-2.2,13.2l-1.6-1.9c-4.6-5.6-11.2-8.7-18.6-8.9l16-8.6L163.2,0L143,23.3l3.5,4.3
			c-3.2,1.3-5.9,3.1-8.2,5.2l-17.3-15.4L114.8,29l0.2-11.2l-27.1,8.7l0.7,14.6l4.6-1.2l0.7,7.4c-5.3-2.4-11.6-2.3-17.5,0.2
			c-1.7,0.7-3.4,1.7-4.9,2.8c1-4.5,0.8-8.9-0.9-12.9c-2-4.7-5.6-8.5-9.9-11c-3.1-2-6.7-3.3-10.5-3.7c-9.4-1.6-20.6,0-31.7,4.8
			c-4.1,1.7-7.9,3.7-11.3,5.9l-4.3,2.8l2.6,4.4l8.1,13.7c0,0,2.5,4.2,2.5,4.2l4.4-2.2l0.6-0.3L41.2,101l1.9,4.3l4.5-1.4l10.9-3.5
			l4.8-1.5L62.1,94l-5.8-22.3c1.7-1.2,3.2-2.5,4.7-3.9c-0.3,2.7-0.2,5.4,0.6,7.9c1.5,5.4,5.1,9.7,10,12c5.3,2.5,11.8,2.6,17.7,0
			c3-1.3,5.7-3.1,7.9-5.3l0.8,8.9l19.1-2.8l0-17.2l40,19.8V72c1.6-0.1,3.2-0.4,4.9-0.8c4.4-1.1,8.2-2.5,11.5-4.5l-1.7,10.3l21.6,3.4
			l1.2-7.8l5.6,10.4l3.4-6.6l1.3,10.9l24.4,4.3l-1.3-8.2c3.3,0.4,6.9-0.1,10.3-1.3c0.8-0.3,1.6-0.7,2.4-1.1l-1,8.8l16.3,2.3l0.1,6.7
			l16.9,5.3l22.1-66.5L272.1,31.8z M50.5,56.7c-0.8-2.6-2.5-8.2-2.5-8.2c0,0-0.3-1.2-0.7-2.6c1.6-0.3,3-0.1,4.3,0.5
			c0.7,0.3,1.9,1.1,2.1,2.5C54.2,52.1,53.1,54.4,50.5,56.7z M126,52.3l5.1-5c-0.2,2.3-0.1,4.7,0.4,7.1L126,52.3z M149.6,50.2
			c-1.4-2.5-1.1-5.6,0.9-7.8c1.9-2.1,4.9-2.7,7.5-1.7L149.6,50.2z M176.4,48.9l-3.5-3.2l3.8-4l1.1-1.2L176.4,48.9z"/>
		<g>
			<path class="st2" d="M272.1,31.8l-2.2,9l-2-10l-27-5.9l0.2,15l4.1,0.9l-0.3,2.7c0,0-0.1,0-0.1-0.1c-5-2.7-11.3-2.9-17.2-0.7
				c-2,0.8-3.8,1.8-5.5,3L218,20h-18l-0.5,2.9h-18.9l-2.2,13.2l-1.6-1.9c-4.6-5.6-11.2-8.7-18.6-8.9l16-8.6L163.2,0L143,23.3
				l3.5,4.3c-3.2,1.3-5.9,3.1-8.2,5.2l-17.3-15.4L114.8,29l0.2-11.2l-27.1,8.7l0.7,14.6l4.6-1.2l0.7,7.4c-5.3-2.4-11.6-2.3-17.5,0.2
				c-1.7,0.7-3.4,1.7-4.9,2.8c1-4.5,0.8-8.9-0.9-12.9c-2-4.7-5.6-8.5-9.9-11c-3.1-2-6.7-3.3-10.5-3.7c-9.4-1.6-20.6,0-31.7,4.8
				c-4.1,1.7-7.9,3.7-11.3,5.9l-4.3,2.8l2.6,4.4l8.1,13.7c0,0,2.5,4.2,2.5,4.2l4.4-2.2l0.6-0.3L41.2,101l1.9,4.3l4.5-1.4l10.9-3.5
				l4.8-1.5L62.1,94l-5.8-22.3c1.7-1.2,3.2-2.5,4.7-3.9c-0.3,2.7-0.2,5.4,0.6,7.9c1.5,5.4,5.1,9.7,10,12c5.3,2.5,11.8,2.6,17.7,0
				c3-1.3,5.7-3.1,7.9-5.3l0.8,8.9l19.1-2.8l0-17.2l40,19.8V72c1.6-0.1,3.2-0.4,4.9-0.8c4.4-1.1,8.2-2.5,11.5-4.5l-1.7,10.3
				l21.6,3.4l1.2-7.8l5.6,10.4l3.4-6.6l1.3,10.9l24.4,4.3l-1.3-8.2c3.3,0.4,6.9-0.1,10.3-1.3c0.8-0.3,1.6-0.7,2.4-1.1l-1,8.8
				l16.3,2.3l0.1,6.7l16.9,5.3l22.1-66.5L272.1,31.8z M176.7,41.7l1.1-1.2l-1.4,8.4l-3.5-3.2L176.7,41.7z M162.3,7.4l5.9,8
				l-16.9,8.4l-1.2-1.8L162.3,7.4z M131.5,54.4l-5.5-2.1l5.1-5C130.9,49.6,131,52,131.5,54.4z M50.3,69.4L57,95.3l-10.9,3.5
				L23.6,48.8c-1.2,0.6-3.5,1.7-5.5,2.7L10,37.8c3.2-2.1,6.8-3.9,10.5-5.5c10.6-4.5,20.7-5.8,28.7-4.4c2.8,0.3,5.9,1.2,8.5,2.9
				c3.6,2,6.4,5,8,8.7C69.7,48.5,63.2,61.5,50.3,69.4z M96.6,75.8c-2.3,3.1-5.4,5.8-9.1,7.4c-9.5,4-19,0-21.5-9
				c-2.5-8.7,3.3-19.1,12.4-23c5.9-2.5,11.7-1.9,16,1c2.6,1.8,4.6,4.4,5.5,7.7c0.1,0.4,0.2,0.7,0.3,1.1c0.3,1.3,0.4,2.6,0.3,3.9
				C100.4,68.7,99,72.5,96.6,75.8z M152.1,83.1l-39.7-19.8l0.1,20.8l-10.3,1.4l-0.7-8.6c3.2-5.4,4.3-11.8,2.7-17.7
				c-0.9-3.2-2.6-6-4.9-8.3l-1.5-17.5l-4.6,1.2l-0.2-4.4l16.5-4.9l1,17l12.1-17.1l11.9,11.3L118,54.1l15.6,6.2
				c1.7,3.3,4.4,6.1,7.7,8.2c3.2,2,6.9,3.2,10.8,3.5V83.1z M160.8,66.2c-1.2,0.3-2.5,0.5-3.7,0.6c-9.1,0.9-16.7-3.3-19.6-10.1
				c-0.3-0.8-0.6-1.7-0.8-2.5c-1.3-5.7-0.2-10.8,2.6-14.8c0.8-1.2,1.8-2.2,2.9-3.2c2.7-2.4,6.1-4.1,9.9-5c8.7-2.1,16.3,0.6,21,6.3
				l-16.5,17.6c1.1,0.2,2.9-0.1,4.2-0.4c3.9-0.9,6.1-3,8.1-5.3l6.6,5.9l2,1.8c-0.9,0.9-1.8,1.7-2.7,2.5
				C170.9,62.7,166.5,64.8,160.8,66.2z M223.2,85.1l-13.5-2.1l-3.6-23.8L201,72.4L193.4,56h-0.1l-3,19l-12.7-2.2l1.8-10.6
				c0.5-0.4,1-0.9,1.4-1.4l4.1-4.2l-4-3.6l4.2-25.2H198l3.2,17.5l3.6-20.3h9.1l3.8,24.7c-4.8,5.5-7.2,12.9-5.6,19.7
				c1.2,5.2,4.5,9.5,9.1,11.9c0.5,0.2,1,0.5,1.4,0.7L223.2,85.1z M236.7,77.8c-3.3,1.2-6.5,1.5-9.4,0.9c-2-0.4-3.9-1.2-5.4-2.3
				c-2.5-1.8-4.4-4.6-5.2-8c-1-4.1-0.1-8.5,2.1-12.3c1.1-1.9,2.5-3.7,4.2-5.2c1.9-1.7,4-3,6.4-4c5.6-2.1,11.1-1.4,15,1.4
				c1.4,1,2.6,2.3,3.5,3.8c0.7,1.2,1.3,2.5,1.6,3.9c1.2,4.9-0.2,10.2-3.3,14.5c-1.3,1.8-3,3.4-4.8,4.8
				C239.9,76.3,238.4,77.1,236.7,77.8z M269.9,97.8l-9.4-2.8l-0.8-34.6L254.9,87l-10.2-1.6l0.7-7.7c6.7-5.6,10.2-14.5,8.3-22.6
				c-0.9-3.6-2.7-6.7-5.3-9.1l0.9-9.1l-3.9-1l0.3-4.8l17.6,3.5l5.9,28.1l6.1-25.2l13.4,3L269.9,97.8z"/>
			<path class="st2" d="M241.5,53.1c0.1,0.4,0.2,0.8,0.1,1.3c-0.1,2.6-2.6,4.6-5.5,4.5c-2.9-0.1-5.2-2.3-5.1-5
				c0.1-2.5,2.3-4.4,5-4.5c-0.5-0.1-1.1-0.2-1.6-0.2c-4.9-0.2-8.9,3.3-9.1,7.6c-0.2,4.6,3.5,8.4,8.4,8.6c4.9,0.2,8.9-3.3,9.1-7.9
				C242.9,56,242.4,54.4,241.5,53.1z"/>
			<path class="st2" d="M92.3,58.4c0,2.6-2.4,4.7-5.3,4.7c-2.9,0-5.3-2.1-5.3-4.7c0-2.5,2.1-4.5,4.8-4.7c-0.5-0.1-1.1-0.1-1.6-0.1
				c-4.9,0-8.8,3.6-8.8,8c0,4.6,3.9,8.3,8.7,8.3c4.9,0,8.8-3.6,8.8-8.3c0-1.6-0.5-3.1-1.4-4.4C92.2,57.6,92.3,58,92.3,58.4z"/>
		</g>
		<path class="st2" d="M149.8,49.6c-1.2-2.2-1-5.1,0.8-7c1.7-1.9,4.4-2.5,6.7-1.6L149.8,49.6z M150.6,42.5c-1.8,2-2,4.8-0.8,7
			l7.5-8.6C155,40.1,152.4,40.6,150.6,42.5z M161.5,39.7c-3.9-3.5-9.8-3.2-13.3,0.6c-3.5,3.9-3.2,9.8,0.6,13.3
			c0.3,0.3,0.7,0.5,1,0.8l12.4-14.1C161.9,40.1,161.7,39.9,161.5,39.7z M149.8,49.6c-1.2-2.2-1-5.1,0.8-7c1.7-1.9,4.4-2.5,6.7-1.6
			L149.8,49.6z"/>
		<path class="st2" d="M57.2,48c-1-5.3-7.9-8.3-14.8-4.6l1.7,6.1l2.7,9l1.2,4.1C53.3,59.3,58.5,55.4,57.2,48z M50.3,56.2
			c-0.7-2.5-2.4-7.8-2.4-7.8c0,0-0.3-1.1-0.7-2.5c1.5-0.3,2.9-0.1,4,0.4c0.6,0.3,1.8,1,2,2.4C53.8,51.8,52.8,54,50.3,56.2z"/>
	</g>
	<g>
		<path d="M277.4,99.2h2.3v0.3h-1v2.5h-0.4v-2.5h-1V99.2z"/>
		<path d="M280.1,102.1v-2.9h0.6l0.8,2.4l0.8-2.4h0.5v2.9h-0.4v-1.7c0-0.1,0-0.2,0-0.3c0-0.1,0-0.3,0-0.4l-0.8,2.4h-0.4l-0.8-2.4
			v0.1c0,0.1,0,0.2,0,0.3c0,0.1,0,0.2,0,0.3v1.7H280.1z"/>
	</g>
	<g>
		<path d="M277.4,115.9h2.3v0.3h-1v2.5h-0.4v-2.5h-1V115.9z"/>
		<path d="M280.1,118.7v-2.9h0.6l0.8,2.4l0.8-2.4h0.5v2.9h-0.4V117c0-0.1,0-0.2,0-0.3c0-0.1,0-0.3,0-0.4l-0.8,2.4h-0.4l-0.8-2.4v0.1
			c0,0.1,0,0.2,0,0.3c0,0.1,0,0.2,0,0.3v1.7H280.1z"/>
	</g>
	<path class="st3" d="M67.3,123.8c-0.3,1.7-0.6,3.6-0.8,5c-0.1,1.4,0.2,2.7,0.2,3.4c-0.1,0.7-0.9,1.3-1.4,1.4
		c-0.5,0.1-1.2,0.1-1.5-0.7c-0.1-0.4-0.2-1.3-0.1-2.4c0.1-1.3,0.3-2.2,0.4-3c-5.1,5.1-9.9,8.3-14,9.4c-3.7,0.8-5.2-1.2-4.9-4.7
		c0.7-6.1,6.1-15.3,10-20.5c0.9-1.1,2.4-2.3,3.1-2.6c0.5-0.2,1.1-0.2,1.3,0.5c0.1,0.4,0.2,1,0.3,1.5c0,0.6,0.1,1.1,0.1,1.3
		c0,0.3-0.2,1-0.6,1.1c-0.2,0.1-0.4,0.1-0.7,0.1c-0.2,0-0.5-0.1-0.7,0c-0.2,0.1-0.7,0.2-1.3,1c-2.7,3.4-6.9,9.9-7.6,16.8
		c-0.2,2.3,0.7,3,2.3,2.6c2.4-0.7,7.8-4.4,11.4-8.6c0.2-0.2,0.4-0.4,0.6-0.7c-0.5,0.1-0.9,0.5-2.2,1.1c-1.3,0.7-1.9,1.2-2.8,1.5
		c-1,0.2-1.4-0.6-1.4-1.3c0.1-0.6,0.7-1.8,1.5-2c0.8-0.2,1.8-0.6,3.3-1.3c2.1-1,4.8-2.3,5.4-2.5c0.3,0,0.7,0.3,0.7,0.9
		C67.6,121.9,67.6,122,67.3,123.8z"/>
	<path class="st3" d="M74.1,115.9c0.5-0.5,0.4-1.1,1.4-1.4c1-0.2,1.1,0.2,2,0c1.8-0.3,5.6,1.5,5.3,7.3c-0.7,5.9-5.2,9-8.4,9.7
		c-3.2,0.5-5.6-0.4-5.3-5.3C69.4,123,71.5,118.6,74.1,115.9z M78.6,123.4c0.2-3.1-0.7-5.8-1.8-5.7c-1.1,0.3-3.1,4.1-3.5,7.7
		c-0.2,3,0.6,3.9,1.7,3.7C76.4,128.7,78.3,126.5,78.6,123.4z"/>
	<path class="st3" d="M84.4,117.6c-0.7,0.1-1.1-0.5-1-1c0.1-0.8,0.5-1.7,1.3-1.9c0.5-0.1,1-0.4,1.4-0.5c0.2-2.5-0.1-4.4,0-6.3
		c0.1-1.1,0.8-2.3,2-2.6c1.4-0.3,1.9,0.6,1.9,1.6c-0.1,1-0.1,4.1-0.2,6.1c0.5-0.2,0.8-0.5,1.4-0.6c0.8-0.1,1.3,0.5,1.3,1.5
		c0,0.8-0.5,1.4-0.9,1.6c-0.6,0.3-1.3,0.5-1.7,0.6c-0.1,0.8-0.2,5-0.2,6.1c0,1.2-0.2,5.2-0.2,5.8c-0.1,0.6-0.8,1.4-1.8,1.6
		c-1.2,0.2-2.1-0.1-2.1-0.8c0-0.7,0.1-4.1,0.3-5.6c0.1-1.5,0.2-5.3,0.3-6.2C85.6,117.4,85,117.5,84.4,117.6z"/>
	<path class="st3" d="M94.5,116c-0.7,0.1-1.1-0.5-1-1c0.1-0.8,0.5-1.7,1.3-1.9c0.5-0.1,1-0.4,1.4-0.4c0.2-2.6-0.1-4.5,0.1-6.6
		c0.1-1.1,0.8-2.4,2-2.6c1.4-0.2,1.9,0.8,1.9,1.8c-0.1,1-0.1,4.3-0.3,6.4c0.5-0.2,0.8-0.5,1.4-0.6c0.8-0.1,1.3,0.6,1.2,1.6
		c-0.1,0.8-0.5,1.4-0.9,1.6c-0.6,0.3-1.3,0.5-1.6,0.6c-0.1,0.8-0.2,5.1-0.2,6.2c0,1.2-0.2,5.2-0.2,5.8c-0.1,0.6-0.8,1.4-1.8,1.6
		c-1.2,0.1-2.1-0.1-2.1-0.8c0-0.7,0.1-4.1,0.3-5.6c0.1-1.5,0.3-5.4,0.3-6.3C95.6,115.8,95,116,94.5,116z"/>
	<path class="st3" d="M110.7,124.1c-1.7,1.7-4.2,2.6-6,2.8c-1.8,0.2-2.7-0.1-2.7-1.4c0.2-2.2,1.8-4.2,4-6.2c1.8-1.7,3.7-3.4,4.3-3.9
		c0.3-0.3,0.7-0.5,0.9-0.6c-0.1-1.4-0.4-2.8-1.6-2.7c-1.1,0.2-2.5,1.3-3.2,2.1c-0.1,0.1-0.6,0.9-1,0.9c-0.6,0.1-1.6-0.5-1.5-1.6
		c0.1-0.6,0.3-1.1,0.7-1.4c1.2-1.1,4.8-3.3,6.1-3.6c1.2-0.1,3.2,0.2,4.1,6.3c0.4,2.5,0.2,5.8,0.1,6.5c-0.1,0.7-0.3,2.7-1,4.1
		c-0.2,0.4-1.3,0.7-1.7,0.8c-0.6,0.1-1.8,0-1.7-1C110.6,124.7,110.6,124.4,110.7,124.1z M106.9,121.6c-0.7,1-0.8,1.4-0.9,2
		c0,0.5,0.3,0.8,0.8,0.7c1.7-0.2,2.8-1.6,3.2-1.9c0.6-0.3,1.1-0.6,1-0.6c0.1-1.2,0.2-2.7,0.3-4.2C110.1,118.5,108,120.1,106.9,121.6
		z"/>
	<path class="st3" d="M129.1,120c-0.1,1.4,0.1,2,1.4,2c1.3-0.1,2.5-0.9,3.2-1.3c0.6-0.4,1.7-1.8,2.7-1.9c1,0,1.6,0.5,1.6,1.1
		c-0.4,2.2-5.8,4.2-8.6,4.5c-3.8,0.1-4.4-1.7-4.2-3.6c0.9-7.2,7.6-13.6,9-13.9c1,0,1.6,0.4,1.5,1.9c-0.1,1.1-0.4,2.3-1.5,2.6
		C131.2,112.5,129.4,117.4,129.1,120z"/>
	<path class="st3" d="M147.3,121.9c-1.7,1.6-4.2,2.3-6,2.4c-1.8,0-2.7-0.3-2.7-1.6c0.2-2.2,1.8-4.1,4-6c1.8-1.6,3.7-3.2,4.2-3.7
		c0.3-0.3,0.6-0.4,0.9-0.5c-0.1-1.4-0.4-3-1.6-3.1c-1.1,0.1-2.5,1.2-3.2,1.9c-0.1,0.1-0.6,0.8-1,0.9c-0.6,0-1.5-0.6-1.5-1.8
		c0.1-0.7,0.3-1.1,0.7-1.5c1.2-1.1,4.8-3.1,6.1-3.2c1.2,0,3.2,0.6,4.1,7.1c0.4,2.6,0.2,6,0.1,6.7c-0.1,0.7-0.3,2.7-1,4
		c-0.2,0.4-1.3,0.6-1.7,0.6c-0.6,0-1.8-0.1-1.7-1.2C147.2,122.5,147.3,122.2,147.3,121.9z M143.5,119.1c-0.7,0.9-0.8,1.4-0.9,2
		c0,0.5,0.3,0.8,0.8,0.8c1.7-0.1,2.8-1.4,3.2-1.7c0.5-0.3,1.1-0.6,1-0.5c0.1-1.2,0.2-2.7,0.3-4.3
		C146.8,116.2,144.7,117.7,143.5,119.1z"/>
	<path class="st3" d="M154,111.3c-0.7,0-1-0.7-1-1.3c0.1-0.9,0.5-1.9,1.3-1.9c0.5,0,1-0.2,1.4-0.3c0.2-2.9-0.1-5.2,0.1-7.7
		c0.1-1.3,0.8-2.7,2-2.7c1.4,0,1.9,1.3,1.8,2.5c-0.1,1.2-0.1,5-0.3,7.2c0.5-0.1,0.7-0.4,1.3-0.4c0.8,0,1.2,0.8,1.2,1.9
		c-0.1,0.9-0.5,1.5-0.9,1.6c-0.6,0.2-1.2,0.3-1.6,0.4c-0.1,0.9-0.3,5.4-0.2,6.7c0,1.3-0.2,5.3-0.2,5.9c-0.1,0.6-0.8,1.3-1.8,1.3
		c-1.2,0-2-0.4-2.1-1.1c0-0.7,0.1-4.1,0.3-5.6c0.1-1.5,0.3-5.7,0.4-6.7C155.1,111.2,154.5,111.3,154,111.3z"/>
	<path class="st3" d="M183.8,116.5c0.2-3.3-0.1-5.9-1-6.1c-1.5,0.1-4.2,3.7-4.5,6.2c-0.1,1.5-0.2,3.4-0.1,4.4c0.1,0.9,0.3,2,0.3,2.7
		c-0.1,0.8-0.7,1.1-1.4,1.1c-1.7-0.1-1.8-0.3-2-0.8c-0.3-1.1-0.6-6.9-0.6-8.7c0.1-3.7-0.3-12.1,0.1-17.7c0.4-4.3,1.3-5.7,3.2-5.7
		c1.1,0.1,1.7,1.4,1.6,2.9c-0.1,1.5-0.5,3.6-0.8,7.7c-0.2,2.8-0.1,6.4-0.3,9.2c0.6-1.9,3.2-5,6.5-4.8c2.2,0.3,3.4,3.9,2.9,10.2
		c-0.1,1.2-0.7,4.5-0.9,5.9c-0.1,1-0.6,1.8-2.4,1.7c-1.1-0.2-1.7-0.7-1.6-1.5C182.9,121.9,183.5,119.7,183.8,116.5z"/>
	<path class="st3" d="M199.9,101.4c1.1-2.2,1.8-4.7,2.7-4.6c1.2,0.3,2,2,2,2.9c-0.1,0.5-0.8,2.5-1.7,4.2c-0.8,1.3-2.5,2.6-3.1,2.5
		c-0.8-0.1-1.6-0.7-1.5-1.7C198.4,103.7,199.5,102.2,199.9,101.4z"/>
	<path class="st3" d="M202.5,120.2c-0.1,1.9,0.6,3,1.2,3.1c0.5,0,1.2-0.3,2.3-1.2c0.6-0.5,1.5-1.4,2.5-2.2c0.6-0.4,1-0.6,1.5-0.6
		c0.9,0.1,1.2,0.6,1.2,1.3c-0.2,1.3-2.7,2.7-4.1,3.5c-0.8,0.4-3.8,2.2-4.7,2.2c-2.4-0.4-3.3-3.5-3.1-5.9c0,0,0,0,0,0
		c-0.2,0.1-0.4,0.1-0.7,0c-0.3-0.1-0.6-0.7-0.6-1.1c0.1-1.1,0.4-1.3,1.5-1.7c0-0.3,0-0.6,0.1-0.8c0.5-5,2.6-8.8,3.7-8.8
		c4,0.6,6.2,4.2,6.2,5.9c-0.1,1.2-0.1,2.3-1.6,3.2c-1.1,0.6-4.5,2.1-5.2,2.5C202.6,119.8,202.6,120,202.5,120.2z M202.8,116.4
		c0.7-0.3,2.8-1.2,3.4-1.5c0.1-1.4-0.6-2.5-1.8-2.7C203.7,112.3,203,115,202.8,116.4z"/>
	<path class="st3" d="M220.2,127.2c0.1-0.5,0.8-7.1,0.9-8.9c0-1.6-0.2-3.6-1.2-3.8c-1-0.1-3.3,2.2-3.6,4.9c-0.3,3.6,0.6,6.1,0.5,7.8
		c-0.1,0.7-1.5,0.9-2,0.9c-1-0.1-1.7-0.5-1.9-1c-0.3-1.1-0.3-4.6-0.3-5.9c0-3.9-0.4-6.4-0.3-8.1c0.2-1.4,1.6-2.1,2.1-2
		c1.3,0.2,2,0.6,2.1,3.7c1.2-1.9,3.1-3.7,5-3.4c1.3,0.3,2.5,1.3,2.9,3.1c1.3-1.6,3.8-2.3,5.7-2c1.8,0.5,2.6,3.5,2.6,5.7
		c0,1.5-0.1,4.1-0.2,5.7c-0.1,1.6,0,3.3-0.1,4.3c-0.1,1-0.7,1.8-2.4,1.5c-1.7-0.3-1.9-1.1-1.8-2.1c0.2-2.1,0.7-6,0.8-7.9
		c0.1-1.7,0.3-4-0.9-4.3c-1.2-0.2-1.8,0.3-3.3,1.6c0,0.2-0.1,4.4-0.2,5.9c-0.1,1.6-0.1,3.3-0.2,4.3c-0.1,1-0.6,1.7-2.3,1.5
		C220.5,128.6,220.2,128.1,220.2,127.2z"/>
	<path class="st3" d="M248.1,131.2c-1.7,1.3-4.1,1.5-5.9,1.2c-1.8-0.4-2.7-1-2.6-2.3c0.2-2.3,1.8-3.9,3.9-5.2
		c1.7-1.2,3.6-2.1,4.1-2.4c0.3-0.2,0.6-0.2,0.9-0.2c-0.1-1.3-0.5-2.7-1.6-3c-1-0.2-2.5,0.4-3.1,0.9c-0.1,0.1-0.6,0.6-1,0.6
		c-0.6-0.2-1.5-1-1.5-2c0.1-0.6,0.3-0.9,0.7-1.1c1.2-0.6,4.6-1.4,5.9-1.2c1.1,0.3,3.1,1,4.1,6.9c0.4,2.4,0.2,5.7,0.1,6.4
		c-0.1,0.7-0.4,2.7-1,4c-0.2,0.4-1.3,0.4-1.7,0.3c-0.6-0.1-1.7-0.6-1.7-1.7C248,131.9,248.1,131.6,248.1,131.2z M244.4,127.5
		c-0.7,0.8-0.8,1.2-0.9,1.8c0,0.5,0.3,0.9,0.8,1c1.7,0.3,2.7-0.9,3.1-1c0.5-0.2,1-0.3,1-0.3c0.1-1.2,0.2-2.7,0.2-4.1
		C247.6,125.4,245.6,126.4,244.4,127.5z"/>
	<path class="st3" d="M257.1,108.9c0.8,0.3,1.9,1.1,1.9,2c-0.1,1-0.4,2.8-0.6,5.2c-0.1,2,0.4,8.8,0.3,10.9c0,2.8,0.7,6.7,0.6,7.8
		c-0.1,1.1-0.9,1.4-2,1.2c-1.1-0.3-2.3-0.9-2.3-1.8c0-1.2-0.2-4.7-0.2-8.1c0-3.4-0.7-9.5-0.4-14.1
		C254.7,109,255.6,108.5,257.1,108.9z"/>
	<path class="st3" d="M264,111.2c0.8,0.3,1.9,1.1,1.9,2c-0.1,0.9-0.4,2.6-0.6,4.9c-0.1,1.9,0.4,8.5,0.4,10.7c0,2.8,0.7,6.8,0.6,7.9
		c-0.1,1.1-0.9,1.4-2,1.1c-1.1-0.3-2.3-0.9-2.3-1.9c0-1.2-0.2-4.7-0.2-8.1c0-3.4-0.7-9.3-0.4-13.7
		C261.6,111.3,262.6,110.8,264,111.2z"/>
	<path class="st3" d="M164.9,119.2c-0.1,1.4,0.1,2.1,1.4,2.1c1.3,0,2.5-0.7,3.1-1c0.6-0.3,1.7-1.7,2.7-1.7c1,0.1,1.6,0.7,1.6,1.3
		c-0.4,2.2-5.7,3.8-8.5,3.9c-3.8-0.2-4.3-2.1-4.2-4c0.9-7.3,7.6-13.2,9-13.4c1,0,1.6,0.5,1.5,2.1c-0.1,1.2-0.4,2.3-1.4,2.5
		C167,111.8,165.1,116.6,164.9,119.2z"/>
	<g>
		<g>
			<path class="st4" d="M52.2,130.9c-0.8,0.6-1.5,1.1-2.1,1.5c0.3-1.6,0.8-3.2,1.4-4.7c0,0.1,0,0.2,0,0.3c0,0.1,0,0.1,0,0.2
				C51.4,129.2,51.7,130.2,52.2,130.9z M66.7,120.5c-0.8-0.7-1.9-1-2.9-0.9c-0.2,0-0.3,0.1-0.5,0.1c-0.6,0.2-1.6,0.7-4.4,2.1
				l-1.2,0.6c-0.8,0.4-2,0.9-2.6,1.1c0,0-0.1,0-0.1,0c-1,0.3-1.8,0.9-2.4,1.7c1.4-2.8,2.9-4.9,3.7-6c0.5,0,0.9-0.1,1.1-0.2
				c0.1,0,0.1,0,0.2,0c1.8-0.6,2.5-2.3,2.7-3.7c0,0,0-0.1,0-0.1c0-0.3,0-0.6,0-1c0-0.2,0-0.4,0-0.6c0-0.1,0-0.2,0-0.3l0-0.2
				c-0.1-0.6-0.2-1.2-0.4-1.8c-0.4-1-1.1-1.8-2-2.3c-1-0.5-2.2-0.5-3.3-0.1c0,0-0.1,0-0.1,0c-1.4,0.6-3.3,2.3-4.3,3.6
				c-3.2,4.3-9.5,14.3-10.2,21.7c0,0.1,0,0.1,0,0.2c-0.2,3.7,1.1,5.6,2.3,6.6c1.1,0.9,3.1,1.9,6.3,1.1c0,0,0.1,0,0.1,0
				c3.1-0.9,6.4-2.7,9.9-5.5c0.7,1.4,2.3,2.7,4.7,2.2c0,0,0.1,0,0.1,0c1.6-0.4,3.4-1.9,3.7-4c0-0.1,0-0.1,0-0.2c0-0.5,0-1.1-0.1-1.6
				c-0.1-0.6-0.1-1.1-0.1-1.7c0.1-1.2,0.3-2.8,0.6-4.6c0,0,0.2-0.9,0.2-0.9c0.2-0.9,0.2-1.2,0.3-2c0,0,0-0.1,0-0.1
				C68.1,122.4,67.6,121.2,66.7,120.5z M59.7,111c0,0,0,0.1,0,0.1c0,0,0,0,0,0C59.8,111.1,59.8,111.1,59.7,111z"/>
			<path class="st4" d="M79.7,115.7c-1.6-1.5-3.8-2.2-5.7-1.9c-0.4-0.1-1.1-0.2-2.1,0c0,0-0.1,0-0.1,0c-1.9,0.5-2.7,1.8-3,2.3
				c-2.9,3.1-5.1,8-5.5,11.9c0,0,0,0.1,0,0.1c-0.2,3.1,0.6,5.5,2.2,7c1.6,1.4,3.8,1.9,6.6,1.4c0.1,0,0.1,0,0.2,0
				c4.5-1.1,9.7-5.3,10.5-12.3c0-0.1,0-0.1,0-0.2C83,119.6,81.2,117.1,79.7,115.7z"/>
			<path class="st4" d="M90.7,112.6c-0.3-0.3-0.6-0.5-1-0.6c0-0.2,0-0.5,0-0.7c0-0.7,0-1.5,0-1.8c0.1-1.5-0.5-2.9-1.5-3.8
				c-1-0.9-2.5-1.2-4-0.9c-0.1,0-0.1,0-0.2,0c-2.3,0.6-4,2.6-4.2,5.2c-0.1,1.2,0,2.2,0,3.2c0,0.4,0,0.7,0,1.1
				c-1.5,0.7-2.5,2.3-2.6,4.2c0,0.1,0,0.1,0,0.2c0,1.2,0.5,2.4,1.3,3.1c0.4,0.3,0.8,0.6,1.2,0.7c0,1-0.1,2.1-0.1,2.7
				c-0.1,1.5-0.2,4.9-0.2,5.7c0,0.1,0,0.2,0,0.4c0.1,1,0.7,1.9,1.5,2.5c0.7,0.5,2,1.1,4.1,0.8c0,0,0.1,0,0.1,0
				c2.2-0.4,4-2.2,4.2-4.2c0-0.1,0-0.1,0-0.2c0-0.7,0.1-4.8,0.2-5.9c0-0.1,0-0.1,0-0.2c0-0.6,0-2.4,0.1-3.8c0,0,0,0,0.1,0
				c1.4-0.8,2.4-2.4,2.5-4.1c0,0,0-0.1,0-0.1C92.2,114.7,91.7,113.5,90.7,112.6z"/>
			<path class="st4" d="M100.5,111c-0.3-0.3-0.6-0.5-1-0.7c0-0.3,0-0.6,0-0.9c0-0.8,0-1.6,0-1.9c0.1-1.6-0.5-3-1.5-3.9
				c-1-0.9-2.4-1.3-3.9-1c-0.1,0-0.1,0-0.2,0c-2.4,0.6-4.1,2.6-4.3,5.3c-0.1,1.2-0.1,2.3,0,3.4c0,0.4,0,0.8,0,1.2
				c-1.5,0.7-2.5,2.3-2.7,4.2c0,0.1,0,0.1,0,0.2c0,1.2,0.4,2.4,1.3,3.2c0.4,0.3,0.8,0.6,1.2,0.8c0,1.1-0.1,2.2-0.1,2.8
				c-0.1,1.5-0.2,4.9-0.2,5.7c0,0.1,0,0.2,0,0.4c0.3,2,2.1,3.8,5.5,3.4c0,0,0.1,0,0.1,0c2.2-0.4,4-2.2,4.3-4.2c0-0.1,0-0.1,0-0.2
				c0-0.7,0.1-4.8,0.2-5.9c0-0.1,0-0.1,0-0.2c0-0.6,0-2.4,0.1-3.9c0,0,0,0,0,0c1.5-0.8,2.4-2.4,2.5-4.1c0,0,0-0.1,0-0.1
				C102,113.2,101.5,111.9,100.5,111z"/>
			<path class="st4" d="M114,116.2c-1.3-7.7-4.8-8.9-7.5-8.6c-0.1,0-0.1,0-0.2,0c-2.3,0.4-6.4,3.3-7.5,4.3c0,0-0.1,0.1-0.1,0.1
				c-0.9,0.9-1.4,2-1.5,3.3c0,0.1,0,0.1,0,0.2c-0.1,1.4,0.4,2.6,1.4,3.5c0.3,0.3,0.7,0.5,1,0.7c-1.8,1.8-3.8,4.3-4.1,7.4
				c0,0.1,0,0.1,0,0.2c0,1.3,0.5,2.5,1.4,3.3c1.4,1.3,3.4,1.2,4.7,1.1c0,0,0.1,0,0.1,0c0.7-0.1,2.4-0.4,4.3-1.3
				c0.8,0.4,1.8,0.6,3,0.5c0,0,0.1,0,0.1,0c0.7-0.1,3.1-0.5,4-2.4c0,0,0-0.1,0.1-0.2c0.9-2,1.1-4.7,1.2-5
				C114.3,122.6,114.6,119,114,116.2z M104.3,123.7C104.3,123.7,104.3,123.7,104.3,123.7C104.3,123.7,104.3,123.7,104.3,123.7
				C104.3,123.7,104.3,123.7,104.3,123.7z M104.4,124.1C104.4,124.1,104.4,124.2,104.4,124.1L104.4,124.1
				C104.4,124.2,104.4,124.1,104.4,124.1z"/>
			<path class="st4" d="M135.7,118.7c-0.9-0.9-2.1-1.3-3.5-1.3c-0.1,0-0.2,0-0.2,0c-1.2,0.1-2.1,0.7-2.8,1.3
				c0.6-1.3,1.3-2.3,1.9-2.5c1.4-0.5,3.2-1.8,3.5-5.2c0,0,0-0.1,0-0.1c0.1-1.6-0.3-2.9-1.3-3.9c-0.6-0.6-1.7-1.3-3.4-1.2
				c-0.2,0-0.3,0-0.5,0.1c-2.8,0.6-10.1,8.1-11,16.3c0,0.1,0,0.1,0,0.2c-0.1,2.1,0.4,3.7,1.6,4.9c1.3,1.3,3.2,1.9,5.8,1.8
				c0.1,0,0.1,0,0.2,0c2.7-0.3,10.2-2.5,11-7c0-0.1,0-0.3,0-0.4C136.9,120.5,136.5,119.5,135.7,118.7z"/>
			<path class="st4" d="M149.9,113.8c-1-6.3-3.4-9.5-7.2-9.4c-0.1,0-0.1,0-0.2,0c-2.4,0.2-6.6,2.9-7.7,4c-0.1,0-0.1,0.1-0.1,0.1
				c-0.9,0.9-1.4,2-1.5,3.3c0,0.1,0,0.1,0,0.2c-0.1,1.4,0.4,2.6,1.3,3.6c0.4,0.4,0.8,0.7,1.3,0.9c-1.9,1.7-4,4.2-4.3,7.4
				c0,0.1,0,0.1,0,0.2c0,1.6,0.7,2.7,1.3,3.2c1.3,1.3,3.2,1.4,4.5,1.4c0,0,0.1,0,0.1,0c0.7,0,2.4-0.2,4.3-1c0.8,0.5,1.8,0.8,2.9,0.7
				c0,0,0.1,0,0.1,0c0.7,0,3.2-0.3,4.3-2.3c0,0,0.1-0.1,0.1-0.2c0.9-1.9,1.1-4.5,1.2-5C150.2,120.4,150.4,116.8,149.9,113.8z
				 M143.2,118.1c-0.1,0-0.1,0-0.2,0c0,0,0,0,0,0C143.1,118.1,143.2,118.1,143.2,118.1z M140.2,121C140.2,121,140.2,121.1,140.2,121
				C140.2,121.1,140.2,121,140.2,121z M140.2,121.6C140.2,121.5,140.2,121.5,140.2,121.6C140.2,121.5,140.2,121.5,140.2,121.6z"/>
			<path class="st4" d="M157.8,105.7c0-0.6,0-1.1,0-1.6c0-0.9,0-1.8,0.1-2.2c0.1-1.6-0.4-3.1-1.4-4.2c-0.9-0.9-2.1-1.5-3.4-1.5
				c-0.1,0-0.2,0-0.2,0c-2.6,0.1-4.6,2.3-4.9,5.5c-0.1,1.4-0.1,2.7,0,3.9c0,0.5,0,1,0,1.5c-1.3,0.6-2.5,1.9-2.7,4.3c0,0,0,0.1,0,0.1
				c0,1.2,0.4,2.4,1.2,3.2c0.4,0.4,0.8,0.7,1.3,0.9c0,1.3-0.1,2.8-0.2,3.5c-0.1,1.6-0.2,5-0.2,5.8c0,0.1,0,0.2,0,0.3
				c0.2,1.7,1.7,3.6,5.1,3.7c0,0,0.1,0,0.1,0c2.3-0.1,4.4-1.8,4.6-4c0-0.1,0-0.1,0-0.2c0-0.7,0.1-4.9,0.2-6c0-0.1,0-0.1,0-0.2
				c0-0.6,0-2.6,0.1-4.1c1.5-0.7,2.4-2.3,2.6-4.1c0,0,0-0.1,0-0.1C160.2,108.2,159.3,106.5,157.8,105.7z"/>
			<path class="st4" d="M167.4,116.8c-0.1,0-0.2,0-0.2,0c-1.4,0-2.5,0.8-3.3,1.4c0.6-1.5,1.4-2.7,2-2.9c0,0,0,0-0.1,0
				c1.2-0.3,3.4-1.4,3.7-5.2c0,0,0-0.1,0-0.1c0.1-1.6-0.3-2.9-1.2-3.8c-0.6-0.6-1.6-1.4-3.2-1.4c-0.2,0-0.3,0-0.5,0
				c-3.3,0.4-10.4,7.9-11.3,15.9c0,0.1,0,0.1,0,0.2c0,0.8-0.2,3.1,1.5,4.9c1.2,1.4,3.1,2.1,5.6,2.2c0.1,0,0.1,0,0.2,0
				c2.7-0.1,10.4-1.7,11.2-6.4c0-0.1,0-0.3,0-0.4C171.9,118.8,170,117,167.4,116.8z"/>
			<path class="st4" d="M180,105.2c-0.1,0-0.2,0-0.3,0c-1.1,0-2.2,0.2-3.2,0.6c0-0.5,0-1,0.1-1.5c0.2-2.4,0.4-4.1,0.5-5.4
				c0.1-0.8,0.2-1.4,0.2-2c0,0,0-0.1,0-0.1c0.2-3.3-1.6-5.8-4.3-6.1c-0.1,0-0.1,0-0.2,0c-5.6-0.2-6.1,6-6.3,8.4
				c-0.3,3.9-0.1,8.9,0,12.9c0,1.9,0.1,3.5,0.1,4.7c0,0,0,0.1,0,0.1c0,0.1,0.3,7.5,0.8,9.2c0.1,0.2,0.1,0.4,0.2,0.6
				c1,2.1,2.8,2.4,4.6,2.4c0.1,0,0.1,0,0.2,0c1.5,0,2.7-0.7,3.5-1.7c0.7,0.8,1.8,1.4,3.2,1.6c0.1,0,0.2,0,0.3,0
				c3.1,0.1,5.2-1.6,5.5-4.4c0.1-0.6,0.2-1.6,0.4-2.6c0.2-1.3,0.4-2.5,0.5-3.2C186.3,108.1,182.9,105.5,180,105.2z"/>
			<path class="st4" d="M197.5,95.2c-0.2,0-0.3,0-0.5-0.1c-2.7-0.1-3.8,2.5-4.7,4.6c-0.2,0.6-0.5,1.1-0.7,1.7
				c-0.1,0.1-0.2,0.3-0.3,0.5c-0.8,1.3-1.4,2.5-1.6,3.8c0,0.1,0,0.2,0,0.2c-0.1,2.5,1.7,4.5,4.2,4.8c0.1,0,0.2,0,0.3,0
				c2.6,0,5-2.9,5.7-4c0-0.1,0.1-0.1,0.1-0.2c0.8-1.6,1.8-4,2-5.2c0-0.1,0-0.2,0-0.3C202,99.1,200.5,95.8,197.5,95.2z"/>
			<path class="st4" d="M206.3,117.7c0.3-0.9,0.4-1.8,0.5-2.4l0-0.1c0-0.1,0-0.1,0-0.2c0-3.1-3.3-7.9-8.8-8.7c-0.2,0-0.4,0-0.5,0
				c-3.7,0.1-5.8,6.3-6.4,10.7c-0.8,0.7-1.5,1.7-1.6,3.3c0,0,0,0.1,0,0.1c-0.1,1.2,0.4,2.5,1.4,3.3c0.5,3.2,2.2,6.1,5.6,6.6
				c0.1,0,0.3,0,0.4,0c1.3,0,2.7-0.6,5.9-2.5l0.2-0.1c2-1.2,5.1-2.9,5.5-5.7c0-0.1,0-0.2,0-0.3C208.6,119.9,207.8,118.4,206.3,117.7
				z M193,118.5c-0.1,0-0.1,0-0.2,0C192.9,118.5,193,118.5,193,118.5z"/>
			<path class="st4" d="M229.5,118.9c0-3.4-1.3-7.6-4.9-8.5c-0.1,0-0.2,0-0.3-0.1c-1.7-0.3-3.5,0-5.1,0.7c-0.9-0.8-2-1.4-3.2-1.7
				c-0.1,0-0.1,0-0.2,0c-1.5-0.2-2.9,0.2-4.1,1c-0.7-0.6-1.6-1-2.8-1.2c-0.1,0-0.1,0-0.2,0c-2.2-0.2-5,1.8-5.3,4.7
				c0,0.1,0,0.1,0,0.2c-0.1,1,0,2,0.1,3.3c0.1,1.4,0.2,2.9,0.2,4.8c0,0.8,0.1,4.9,0.5,6.4c0,0.2,0.1,0.3,0.2,0.5
				c0.6,1.5,2.2,2.5,4.3,2.8c0,0,0.1,0,0.1,0c1.3,0.1,2.7-0.2,3.7-0.9c0.7,0.7,1.7,1.3,3.4,1.5c0.1,0,0.1,0,0.2,0
				c1.6,0.2,2.9-0.2,3.9-1c0,0,0.1-0.1,0.1-0.1c0.7,0.9,1.9,1.6,3.4,1.9c0,0,0.1,0,0.1,0c1.6,0.2,3-0.1,4.1-0.9
				c0.7-0.5,1.5-1.6,1.7-3.3c0,0,0-0.1,0-0.1c0-0.6,0-1.2,0-2c0-0.7,0-1.6,0-2.3C229.5,123,229.5,120.4,229.5,118.9z"/>
			<path class="st4" d="M248.7,123.1c-0.9-5.4-3-8.3-6.4-9.1c-0.1,0-0.1,0-0.2,0c-2.2-0.4-6.2,0.7-7.8,1.5c-0.1,0-0.1,0.1-0.2,0.1
				c-1.2,0.8-1.9,1.9-2,3.4c0,0.1,0,0.1,0,0.2c-0.1,1.9,1,3.5,2.4,4.4c-1.6,1.2-3.7,3.3-4,6.6c0,0.1,0,0.1,0,0.2
				c0,1.6,0.6,4.4,5,5.3c0,0,0.1,0,0.1,0c1.5,0.3,2.9,0.2,4.3-0.1c0.7,0.7,1.6,1.2,2.8,1.5c0,0,0.1,0,0.1,0c1.7,0.3,3.9,0,4.9-1.9
				c0-0.1,0.1-0.1,0.1-0.2c0.9-2,1.1-4.7,1.2-5C249,129.2,249.2,125.8,248.7,123.1z M241.4,126.4c0.3-0.1,0.6-0.1,0.9-0.1v0
				C242,126.3,241.7,126.3,241.4,126.4z M239.1,129.3C239.1,129.3,239.1,129.3,239.1,129.3C239.1,129.3,239.1,129.3,239.1,129.3z"/>
			<path class="st4" d="M255.6,132c-0.2-1.5-0.4-3.3-0.4-4.8c0-1-0.1-2.8-0.2-4.9c-0.1-2.1-0.3-4.7-0.2-5.6c0.1-1.2,0.2-2.3,0.3-3.1
				c0.1-0.8,0.2-1.4,0.2-2c0-0.1,0-0.1,0-0.2c0-2.4-2-4.1-4-4.8c0,0-0.1,0-0.1,0c-2-0.6-3.3,0-4.1,0.5c-1.8,1.3-2.2,3.5-2.4,5.1
				c0,0,0,0.1,0,0.1c-0.2,3,0.1,6.5,0.3,9.5c0.1,1.7,0.2,3.4,0.2,4.5c0,2.2,0.1,4.4,0.2,6c0,0.8,0.1,1.5,0.1,1.8c0,0.1,0,0.1,0,0.2
				c0.1,1,0.6,3.6,4.6,4.6c0,0,0.1,0,0.1,0c1.9,0.4,3.2-0.1,3.9-0.7c1-0.7,1.6-1.8,1.7-3.2c0-0.1,0-0.1,0-0.2
				C255.9,134.3,255.8,133.5,255.6,132z"/>
			<path class="st4" d="M262.5,133.6c-0.2-1.5-0.4-3.4-0.4-4.8c0-1-0.1-2.9-0.2-4.9c-0.1-2-0.3-4.5-0.2-5.3c0.1-1.1,0.2-2.1,0.3-2.9
				c0.1-0.8,0.2-1.4,0.2-1.9c0-0.1,0-0.1,0-0.2c0-2.3-2-4-3.9-4.7c0,0-0.1,0-0.1,0c-2-0.6-3.4-0.1-4.2,0.5c-1.8,1.2-2.2,3.4-2.3,4.9
				c0,0,0,0.1,0,0.1c-0.2,2.8,0.1,6.1,0.3,9.1c0.1,1.7,0.3,3.4,0.3,4.5c0,2.2,0.1,4.4,0.2,6.1c0,0.8,0.1,1.6,0.1,1.9
				c0,0,0,0.1,0,0.1c0.1,1,0.6,3.6,4.5,4.7c0,0,0.1,0,0.1,0c1.9,0.5,3.2-0.1,3.9-0.6c1-0.7,1.6-1.8,1.8-3.2c0-0.1,0-0.1,0-0.2
				C262.8,136,262.7,135.1,262.5,133.6z"/>
		</g>
		<path class="st3" d="M64.5,126c-0.3,1.7-0.6,3.5-0.7,4.9c-0.1,1.4,0.2,2.6,0.2,3.3c-0.1,0.7-0.9,1.2-1.4,1.4
			c-0.5,0.1-1.2,0.2-1.4-0.7c-0.1-0.4-0.2-1.3-0.1-2.4c0.1-1.3,0.2-2.2,0.4-3c-4.9,5.1-9.6,8.2-13.6,9.4c-3.6,0.8-5.1-1.2-4.9-4.6
			c0.6-6,5.8-15,9.6-20.2c0.9-1.1,2.3-2.3,3-2.6c0.5-0.2,1.1-0.2,1.3,0.5c0.1,0.4,0.2,1,0.3,1.5c0,0.6,0.1,1.1,0.1,1.3
			c0,0.3-0.2,1-0.6,1.1c-0.2,0.1-0.4,0.1-0.6,0.1c-0.2,0-0.5,0-0.6,0c-0.2,0.1-0.7,0.2-1.3,1c-2.6,3.4-6.6,9.8-7.3,16.6
			c-0.1,2.3,0.8,2.9,2.3,2.6c2.3-0.7,7.6-4.4,11.1-8.6c0.2-0.2,0.4-0.4,0.6-0.7c-0.5,0.1-0.9,0.5-2.2,1.1c-1.3,0.7-1.8,1.2-2.8,1.5
			c-0.9,0.2-1.4-0.6-1.4-1.2c0.1-0.6,0.7-1.7,1.4-1.9c0.7-0.2,1.7-0.6,3.2-1.3c2-1,4.7-2.3,5.2-2.5c0.3,0,0.7,0.2,0.6,0.8
			C64.9,124.2,64.9,124.3,64.5,126z"/>
		<path class="st3" d="M71.2,118.2c0.5-0.4,0.4-1.1,1.3-1.3c0.9-0.2,1.1,0.2,2,0c1.8-0.3,5.5,1.4,5.2,7.1c-0.6,5.7-5,8.9-8.1,9.6
			c-3.2,0.6-5.5-0.3-5.2-5.1C66.7,125.2,68.7,120.9,71.2,118.2z M75.7,125.5c0.2-3-0.8-5.7-1.8-5.6c-1.1,0.3-3,4-3.4,7.6
			c-0.2,3,0.6,3.8,1.8,3.6C73.6,130.8,75.4,128.6,75.7,125.5z"/>
		<path class="st3" d="M81.3,119.8c-0.7,0.1-1-0.5-1-1c0.1-0.8,0.4-1.7,1.3-1.9c0.5-0.1,0.9-0.4,1.3-0.5c0.2-2.5-0.2-4.3,0-6.2
			c0.1-1.1,0.7-2.2,2-2.5c1.4-0.3,1.9,0.6,1.9,1.5c-0.1,0.9,0,4-0.2,6c0.5-0.2,0.7-0.5,1.3-0.6c0.8-0.1,1.3,0.5,1.2,1.4
			c0,0.8-0.5,1.3-0.9,1.5c-0.6,0.3-1.2,0.5-1.6,0.6c0,0.8-0.2,4.9-0.1,6c0,1.2-0.1,5.1-0.1,5.7c-0.1,0.6-0.8,1.4-1.8,1.6
			c-1.2,0.2-2-0.1-2.1-0.7c0-0.7,0.1-4,0.2-5.5c0.1-1.4,0.2-5.2,0.2-6.1C82.4,119.5,81.9,119.7,81.3,119.8z"/>
		<path class="st3" d="M91.1,118.2c-0.7,0.1-1-0.5-1-1c0.1-0.8,0.4-1.7,1.3-1.9c0.5-0.1,0.9-0.4,1.3-0.4c0.2-2.6-0.2-4.5,0-6.5
			c0.1-1.1,0.7-2.3,2-2.6c1.4-0.2,1.9,0.7,1.9,1.7c-0.1,1,0,4.2-0.2,6.2c0.5-0.2,0.7-0.5,1.3-0.6c0.8-0.1,1.3,0.5,1.2,1.5
			c0,0.8-0.5,1.4-0.9,1.6c-0.6,0.3-1.2,0.5-1.6,0.6c-0.1,0.8-0.2,5-0.1,6.1c0,1.2-0.1,5.1-0.1,5.7c-0.1,0.6-0.8,1.4-1.8,1.6
			c-1.2,0.1-2-0.1-2.1-0.8c0-0.7,0.1-4,0.2-5.4c0.1-1.4,0.2-5.3,0.3-6.2C92.2,117.9,91.7,118.1,91.1,118.2z"/>
		<path class="st3" d="M107.1,125.8c-1.7,1.7-4.1,2.6-5.9,2.9c-1.8,0.2-2.7-0.1-2.7-1.3c0.2-2.2,1.8-4.2,3.9-6.1
			c1.7-1.7,3.6-3.4,4.1-3.8c0.3-0.3,0.6-0.5,0.9-0.6c-0.1-1.3-0.5-2.8-1.6-2.7c-1,0.2-2.5,1.3-3.1,2.1c-0.1,0.1-0.6,0.8-1,0.9
			c-0.6,0.1-1.5-0.4-1.5-1.5c0.1-0.6,0.3-1.1,0.7-1.4c1.2-1.1,4.7-3.3,6-3.6c1.1-0.1,3.1,0.1,4.1,6.1c0.4,2.4,0.2,5.7,0.2,6.4
			c-0.1,0.7-0.3,2.6-0.9,4c-0.2,0.4-1.3,0.7-1.7,0.8c-0.6,0.1-1.7,0.1-1.7-1C107,126.5,107.1,126.2,107.1,125.8z M103.3,123.5
			c-0.7,0.9-0.8,1.4-0.9,2c0,0.5,0.3,0.7,0.8,0.7c1.7-0.2,2.7-1.6,3.1-1.9c0.5-0.3,1-0.6,1-0.6c0.1-1.1,0.2-2.6,0.2-4.1
			C106.5,120.4,104.5,122,103.3,123.5z"/>
		<path class="st3" d="M125.1,121.7c-0.1,1.3,0.1,2,1.4,1.9c1.3-0.1,2.4-0.9,3.1-1.3c0.6-0.4,1.6-1.8,2.7-1.9c1,0,1.6,0.5,1.6,1.1
			c-0.4,2.2-5.6,4.2-8.3,4.5c-3.7,0.1-4.3-1.6-4.2-3.5c0.8-7.1,7.3-13.4,8.7-13.7c1-0.1,1.6,0.4,1.5,1.9c-0.1,1.1-0.4,2.2-1.4,2.6
			C127.1,114.3,125.4,119.1,125.1,121.7z"/>
		<path class="st3" d="M143,123.3c-1.7,1.6-4.1,2.3-5.8,2.4c-1.8,0.1-2.7-0.3-2.7-1.5c0.2-2.1,1.8-4.1,3.9-5.9
			c1.7-1.6,3.6-3.2,4.1-3.6c0.3-0.3,0.6-0.4,0.9-0.5c-0.1-1.4-0.5-3-1.6-3c-1,0.1-2.5,1.2-3.1,1.9c-0.1,0.1-0.6,0.8-1,0.9
			c-0.6,0-1.5-0.6-1.5-1.8c0.1-0.7,0.3-1.1,0.7-1.5c1.2-1.1,4.6-3.1,6-3.2c1.1,0,3.1,0.6,4.1,6.9c0.4,2.6,0.2,5.9,0.2,6.6
			c-0.1,0.7-0.3,2.7-0.9,3.9c-0.2,0.4-1.3,0.6-1.7,0.6c-0.6,0-1.7-0.1-1.7-1.1C142.9,124,142.9,123.7,143,123.3z M139.2,120.7
			c-0.7,0.9-0.8,1.3-0.9,1.9c0,0.5,0.3,0.8,0.8,0.8c1.7-0.1,2.7-1.4,3.1-1.7c0.5-0.3,1-0.6,1-0.5c0.1-1.2,0.2-2.7,0.2-4.2
			C142.4,117.7,140.4,119.2,139.2,120.7z"/>
		<path class="st3" d="M149.4,112.9c-0.7,0-1-0.7-1-1.3c0.1-0.9,0.4-1.9,1.3-1.9c0.5,0,0.9-0.2,1.3-0.3c0.2-2.9-0.1-5.1,0.1-7.5
			c0.1-1.3,0.8-2.6,2-2.7c1.4,0,1.9,1.3,1.8,2.4c-0.1,1.1-0.1,4.9-0.3,7.1c0.5-0.1,0.7-0.4,1.3-0.5c0.8,0,1.2,0.8,1.2,1.9
			c-0.1,0.9-0.5,1.4-0.9,1.6c-0.6,0.2-1.2,0.3-1.6,0.4c-0.1,0.8-0.2,5.3-0.2,6.5c0,1.2-0.1,5.2-0.2,5.8c-0.1,0.6-0.8,1.3-1.7,1.3
			c-1.2,0-2-0.4-2.1-1c0-0.7,0.1-4,0.2-5.5c0.1-1.5,0.2-5.6,0.3-6.6C150.5,112.8,149.9,112.9,149.4,112.9z"/>
		<path class="st3" d="M178.7,117.7c0.2-3.2-0.2-5.8-1-6c-1.5,0.1-4.1,3.7-4.3,6.1c-0.1,1.5-0.2,3.4-0.1,4.3
			c0.1,0.9,0.3,1.9,0.3,2.6c-0.1,0.7-0.7,1.1-1.4,1.1c-1.6-0.1-1.7-0.3-2-0.7c-0.3-1-0.6-6.7-0.7-8.5c0-3.7-0.4-11.9,0-17.3
			c0.4-4.2,1.2-5.6,3.1-5.6c1.1,0.1,1.7,1.3,1.6,2.9c-0.1,1.5-0.4,3.5-0.7,7.5c-0.2,2.8-0.1,6.3-0.2,9c0.6-1.8,3.1-4.9,6.3-4.8
			c2.2,0.3,3.4,3.7,3,10c-0.1,1.2-0.7,4.4-0.8,5.8c-0.1,0.9-0.6,1.7-2.3,1.7c-1.1-0.1-1.7-0.7-1.6-1.5
			C177.9,123,178.4,120.8,178.7,117.7z"/>
		<path class="st3" d="M194.3,102.8c1.1-2.2,1.7-4.6,2.6-4.6c1.2,0.2,2,1.9,2,2.8c-0.1,0.5-0.7,2.5-1.6,4.2c-0.8,1.3-2.4,2.5-3,2.5
			c-0.8-0.1-1.5-0.7-1.5-1.7C192.9,105,193.9,103.5,194.3,102.8z"/>
		<path class="st3" d="M197.1,121.1c-0.1,1.9,0.7,2.9,1.2,3c0.5,0,1.2-0.3,2.2-1.2c0.6-0.5,1.5-1.4,2.4-2.1c0.6-0.4,1-0.6,1.4-0.6
			c0.9,0.1,1.2,0.5,1.1,1.3c-0.2,1.3-2.6,2.7-4,3.5c-0.8,0.4-3.7,2.2-4.6,2.2c-2.4-0.3-3.3-3.4-3.1-5.8c0,0,0,0,0,0
			c-0.2,0.1-0.4,0.1-0.7,0.1c-0.3-0.1-0.6-0.7-0.6-1.1c0.1-1.1,0.4-1.3,1.5-1.7c0-0.3,0-0.5,0.1-0.8c0.4-4.9,2.5-8.6,3.5-8.7
			c3.9,0.6,6.2,4.1,6.1,5.7c-0.1,1.1-0.1,2.2-1.5,3.1c-1.1,0.6-4.4,2.1-5.1,2.5C197.1,120.8,197.1,120.9,197.1,121.1z M197.3,117.4
			c0.7-0.3,2.7-1.2,3.3-1.5c0.1-1.3-0.6-2.4-1.8-2.6C198.1,113.3,197.4,116,197.3,117.4z"/>
		<path class="st3" d="M214.5,127.9c0-0.5,0.7-7,0.8-8.7c0-1.6-0.2-3.5-1.2-3.7c-1,0-3.2,2.2-3.5,4.8c-0.2,3.5,0.6,6,0.5,7.7
			c-0.1,0.7-1.5,0.9-2,0.9c-0.9-0.1-1.7-0.5-1.9-1c-0.3-1.1-0.4-4.5-0.4-5.7c0-3.8-0.4-6.3-0.3-7.9c0.2-1.3,1.5-2,2.1-2
			c1.3,0.2,2,0.6,2.1,3.6c1.1-1.9,3-3.6,4.9-3.4c1.3,0.2,2.4,1.2,2.8,3c1.3-1.6,3.7-2.3,5.6-2c1.8,0.4,2.5,3.4,2.6,5.5
			c0,1.5-0.1,4-0.1,5.6c-0.1,1.6,0,3.3,0,4.2c-0.1,1-0.6,1.7-2.4,1.5c-1.7-0.3-1.9-1.1-1.8-2c0.2-2,0.6-5.9,0.7-7.8
			c0.1-1.6,0.2-3.9-0.9-4.2c-1.2-0.2-1.8,0.3-3.2,1.6c0,0.2-0.1,4.3-0.1,5.8c-0.1,1.6-0.1,3.3-0.1,4.2c-0.1,0.9-0.5,1.7-2.2,1.5
			C214.8,129.2,214.4,128.8,214.5,127.9z"/>
		<path class="st3" d="M241.9,131.5c-1.6,1.3-4,1.5-5.7,1.2c-1.7-0.4-2.6-1-2.6-2.3c0.2-2.2,1.7-3.8,3.8-5.1c1.7-1.2,3.5-2.1,4-2.4
			c0.3-0.2,0.6-0.2,0.9-0.2c-0.1-1.3-0.5-2.7-1.6-3c-1-0.2-2.4,0.4-3.1,0.9c-0.1,0.1-0.6,0.6-1,0.6c-0.6-0.1-1.5-0.9-1.5-1.9
			c0.1-0.6,0.3-0.9,0.7-1.1c1.1-0.6,4.5-1.4,5.8-1.2c1.1,0.3,3.1,1,4.1,6.7c0.4,2.4,0.3,5.5,0.2,6.2c-0.1,0.7-0.3,2.7-0.9,4
			c-0.2,0.4-1.3,0.4-1.7,0.3c-0.6-0.1-1.7-0.5-1.7-1.6C241.7,132.2,241.8,131.9,241.9,131.5z M238.2,127.9c-0.7,0.8-0.8,1.2-0.8,1.8
			c0,0.5,0.3,0.9,0.8,1c1.6,0.3,2.7-0.9,3-1c0.5-0.2,1-0.3,0.9-0.3c0.1-1.1,0.2-2.6,0.2-4C241.3,125.8,239.3,126.7,238.2,127.9z"/>
		<path class="st3" d="M250.4,109.5c0.8,0.3,1.9,1,1.9,2c0,1-0.4,2.7-0.6,5.1c-0.1,2,0.5,8.6,0.4,10.7c0,2.8,0.7,6.6,0.7,7.6
			c-0.1,1.1-0.8,1.4-2,1.1c-1-0.3-2.2-0.8-2.3-1.8c0-1.1-0.3-4.6-0.3-7.9c0-3.3-0.8-9.3-0.5-13.8C248.1,109.7,249,109.1,250.4,109.5
			z"/>
		<path class="st3" d="M257.2,111.8c0.8,0.3,1.9,1,1.9,1.9c0,0.9-0.4,2.5-0.5,4.8c-0.1,1.9,0.5,8.3,0.5,10.4c0,2.8,0.7,6.6,0.7,7.7
			c-0.1,1.1-0.8,1.4-2,1.1c-1-0.3-2.2-0.9-2.3-1.9c0-1.2-0.3-4.6-0.3-8c0-3.3-0.8-9.1-0.6-13.4C254.9,111.8,255.8,111.3,257.2,111.8
			z"/>
		<path class="st3" d="M160.1,120.6c-0.1,1.4,0.1,2,1.4,2.1c1.3,0,2.4-0.7,3.1-1c0.6-0.3,1.6-1.7,2.7-1.7c1,0,1.6,0.6,1.5,1.2
			c-0.4,2.2-5.6,3.8-8.3,3.9c-3.7-0.1-4.3-2-4.2-3.9c0.8-7.1,7.3-13.1,8.6-13.2c0.9,0,1.6,0.5,1.5,2c-0.1,1.1-0.4,2.2-1.4,2.5
			C162.1,113.2,160.4,118,160.1,120.6z"/>
		<g>
			<path class="st4" d="M274.3,135.1c-0.3-0.3-0.4-0.6-0.8-0.9c0.5-0.7,0.7-1.4,0.8-2.5c0-0.4,0.1-1.2,0.2-2.1
				c0.2-1.8,0.4-4.3,0.5-6.6c0.1-2.2,0.4-4.2,0.5-5.3c0.1-0.5,0.1-0.9,0.1-1.1c0.2-2.9-1.8-5.2-4.7-5.4c-1.2-0.1-2.5,0.4-3.5,1.3
				c-1,0.9-1.7,2.1-1.8,3.3c0,0.5,0,1.7,0,3.7c0,1.9,0,4.3,0,5.2c-0.1,1.1-0.2,3.2-0.2,5c0,1-0.1,2-0.1,2.3c-0.1,0.8,0,1.4,0.5,2.1
				c-1.3,0.7-2.2,2.1-2.3,3.6c-0.1,1.3,0.2,2.4,1,3.3c1,1.2,2.6,1.8,4.9,1.9c2.9,0.2,6-1.1,6.3-3.7
				C275.8,137.7,275.2,136.2,274.3,135.1z"/>
			<path class="st3" d="M270.8,113.7c1.6,0.1,2.4,1.3,2.3,2.6c0,0.6-0.5,3.3-0.7,6.5c-0.2,3.5-0.6,7.3-0.7,8.7
				c-0.1,1-0.5,1.8-1.7,1.8c-1.6,0-2.1-1.2-2.1-2c0.1-0.8,0.1-4.8,0.2-6.6c0.1-1.8,0-7.8,0.1-8.9
				C268.4,114.8,269.7,113.6,270.8,113.7z M269.8,135.2c1.8,0.1,3.2,2.3,3,3.3c-0.2,0.8-1.6,1.3-3.2,1.3c-2.1-0.1-3.2-0.8-3.1-2.1
				C266.6,136.7,268.5,135.2,269.8,135.2z"/>
		</g>
	</g>
</g>
</svg>
